<svg id="Layer_1_1_" enable-background="new 0 0 96 96" height="512" viewBox="0 0 96 96" width="512" xmlns="http://www.w3.org/2000/svg"><path d="m90.44 54.21c.36.51.56 1.13.56 1.76 0 1.67-1.36 3.03-3.03 3.03h-6.97v16c0 2.21-1.79 4-4 4h-18v14h-36c0-10.35-3.49-20.4-9.89-28.54-5.33-6.78-8.41-15.42-8.09-24.79.68-20.04 18.31-36.87 38.36-36.67 17.62.18 32.37 12.34 36.48 28.72 1.87 7.44 4.89 14.53 9.35 20.77z" fill="#63b2b9"/><g fill="#e6e6e6"><path d="m27 90c-.553 0-1-.447-1-1v-48c0-.553.447-1 1-1s1 .447 1 1v48c0 .553-.447 1-1 1z"/><path d="m31 71c-.553 0-1-.447-1-1v-19c0-.266.105-.52.293-.707l4.707-4.707v-4.586c0-.553.447-1 1-1s1 .447 1 1v5c0 .266-.105.52-.293.707l-4.707 4.707v18.586c0 .553-.447 1-1 1z"/><path d="m40 75c-.553 0-1-.447-1-1v-25c0-.266.105-.52.293-.707l5.707-5.707v-7.586c0-.553.447-1 1-1s1 .447 1 1v8c0 .266-.105.52-.293.707l-5.707 5.707v24.586c0 .553-.447 1-1 1z"/><path d="m31 94c-.553 0-1-.447-1-1v-15c0-.553.447-1 1-1s1 .447 1 1v15c0 .553-.447 1-1 1z"/><path d="m46 66c-.553 0-1-.447-1-1v-7.586l-5.707-5.707c-.391-.391-.391-1.023 0-1.414s1.023-.391 1.414 0l6 6c.188.187.293.441.293.707v8c0 .553-.447 1-1 1z"/><path d="m36 70c-.553 0-1-.447-1-1v-6c0-.266.105-.52.293-.707l4-4c.391-.391 1.023-.391 1.414 0s.391 1.023 0 1.414l-3.707 3.707v5.586c0 .553-.447 1-1 1z"/></g><path d="m23 35h-1c-1.66 0-3.16-.67-4.24-1.76-1.09-1.08-1.76-2.58-1.76-4.24 0-3.01 2.22-5.49 5.1-5.93-.06-.34-.1-.7-.1-1.07 0-3.31 2.69-6 6-6 .37 0 .73.04 1.07.1.44-2.88 2.92-5.1 5.93-5.1 1.24 0 2.39.38 3.34 1.02.82-2.34 3.04-4.02 5.66-4.02s4.84 1.68 5.66 4.02c.95-.64 2.1-1.02 3.34-1.02 3.01 0 5.49 2.22 5.93 5.1.34-.06.7-.1 1.07-.1 3.31 0 6 2.69 6 6 0 .37-.04.73-.1 1.07 1.44.22 2.72.95 3.63 2s1.47 2.43 1.47 3.93c0 3.31-2.69 6-6 6h-24v2c0 2.21-1.79 4-4 4h-9c-2.21 0-4-1.79-4-4z" fill="#f9be3c"/><path d="m60 80h-5c-.553 0-1-.447-1-1s.447-1 1-1h5c.553 0 1 .447 1 1s-.447 1-1 1z" fill="#50a3ab"/><circle cx="51" cy="79" fill="#50a3ab" r="1"/><circle cx="47" cy="79" fill="#50a3ab" r="1"/><circle cx="43" cy="79" fill="#50a3ab" r="1"/><circle cx="31" cy="74" fill="#e6e6e6" r="1"/><path d="m81 68h-8c-2.757 0-5-2.243-5-5v-1c0-.553.447-1 1-1s1 .447 1 1v1c0 1.654 1.346 3 3 3h8c.553 0 1 .447 1 1s-.447 1-1 1z" fill="#8c645a"/><path d="m66 47.924c-2.817 0-5.634-1.072-7.778-3.217-.391-.391-.391-1.023 0-1.414s1.023-.391 1.414 0c3.51 3.51 9.219 3.51 12.729 0 .391-.391 1.023-.391 1.414 0s.391 1.023 0 1.414c-2.145 2.145-4.962 3.217-7.779 3.217z" fill="#8c645a"/><path d="m22 49h-16.35c-.553 0-1-.447-1-1s.447-1 1-1h16.35c.553 0 1 .447 1 1s-.447 1-1 1z" fill="#50a3ab"/><path d="m22 54h-15.06c-.553 0-1-.447-1-1s.447-1 1-1h15.06c.553 0 1 .447 1 1s-.447 1-1 1z" fill="#50a3ab"/><path d="m22 59h-12.99c-.553 0-1-.447-1-1s.447-1 1-1h12.99c.553 0 1 .447 1 1s-.447 1-1 1z" fill="#50a3ab"/><path d="m37 15c-.553 0-1-.447-1-1 0-3.859 3.141-7 7-7 .553 0 1 .447 1 1s-.447 1-1 1c-2.757 0-5 2.243-5 5 0 .553-.447 1-1 1z" fill="#f68250"/><path d="m46 18c-.553 0-1-.447-1-1 0-3.859 3.141-7 7-7 .553 0 1 .447 1 1s-.447 1-1 1c-2.757 0-5 2.243-5 5 0 .553-.447 1-1 1z" fill="#f68250"/><path d="m31.474 19c-.274 0-.548-.112-.745-.333-.948-1.06-2.307-1.667-3.729-1.667-.553 0-1-.447-1-1s.447-1 1-1c1.991 0 3.893.851 5.219 2.333.368.412.333 1.044-.078 1.412-.192.171-.43.255-.667.255z" fill="#f68250"/><path d="m16 30c-.553 0-1-.447-1-1 0-3.859 3.141-7 7-7 .802 0 1.587.135 2.334.399.521.185.793.756.608 1.276s-.76.791-1.276.608c-.532-.187-1.093-.283-1.666-.283-2.757 0-5 2.243-5 5 0 .553-.447 1-1 1z" fill="#f68250"/><path d="m65 23c-.553 0-1-.447-1-1 0-2.757-2.243-5-5-5-.879 0-1.743.231-2.499.668-.48.277-1.091.113-1.366-.364-.277-.479-.113-1.09.364-1.366 1.06-.614 2.271-.938 3.501-.938 3.859 0 7 3.141 7 7 0 .553-.447 1-1 1z" fill="#f68250"/><circle cx="10" cy="43" fill="#50a3ab" r="1"/><circle cx="10" cy="39" fill="#50a3ab" r="1"/><circle cx="10" cy="35" fill="#50a3ab" r="1"/><circle cx="14" cy="43" fill="#50a3ab" r="1"/><circle cx="14" cy="39" fill="#50a3ab" r="1"/><circle cx="18" cy="43" fill="#50a3ab" r="1"/><path d="m54 29c-.256 0-.512-.098-.707-.293l-5.293-5.293-5.293 5.293c-.391.391-1.023.391-1.414 0l-5.293-5.293-5.293 5.293c-.391.391-1.023.391-1.414 0s-.391-1.023 0-1.414l6-6c.391-.391 1.023-.391 1.414 0l5.293 5.293 5.293-5.293c.391-.391 1.023-.391 1.414 0l5.293 5.293 19.293-19.293c.391-.391 1.023-.391 1.414 0l6.293 6.293 11.293-11.293c.391-.391 1.023-.391 1.414 0s.391 1.023 0 1.414l-12 12c-.391.391-1.023.391-1.414 0l-6.293-6.293-19.293 19.293c-.195.195-.451.293-.707.293z" fill="#e6646e"/><path d="m32 31c-.256 0-.512-.098-.707-.293l-4-4c-.391-.391-.391-1.023 0-1.414s1.023-.391 1.414 0l4 4c.391.391.391 1.023 0 1.414-.195.195-.451.293-.707.293z" fill="#e6646e"/><path d="m93 10c-.553 0-1-.447-1-1v-5h-5c-.553 0-1-.447-1-1s.447-1 1-1h6c.553 0 1 .447 1 1v6c0 .553-.447 1-1 1z" fill="#e6646e"/><path d="m23 35h17v3h-17z" fill="#f7aa3b"/></svg>